<svg xmlns="http://www.w3.org/2000/svg" data-name="Layer 1" viewBox="0 0 96 109.1875" x="0px" y="0px"><title>09</title><path d="M22,39.74c2.45,1.35,12.55,9.82,12.55,9.82L43.26,56l-.81-2.38C36.54,43.11,39.77,35,39.77,35l-1.88-5.9C34.65,14.66,16.63,17.79,16.63,17.79,14.75,33.51,19.59,38.4,22,39.74Z" transform="translate(-2 -6.32)"/><path d="M18.51,44.74c-7.26-1-12.37,1.73-15.33,1.73s.27,4.62,3,8,6.19,10.36,18.29,9,13.32-2.17,20.92-.55L43.2,57.65S25.78,45.7,18.51,44.74Z" transform="translate(-2 -6.32)"/><path d="M96.82,46.84c-3,0-12.72-3.55-19.54-.88-9.22,3.61-22.63,12.6-22.63,12.6L53,62.71c7.6-1.61,9.89-.27,22,1.09s16.14-5.66,18.83-9S99.78,46.84,96.82,46.84Z" transform="translate(-2 -6.32)"/><path d="M47.56,47.43c-.89-2.75-.75-10.27-3.24-11.44s-3.7.48-3.28,5.75,2.59,10.38,3.66,11.05l1.78,7.66s1.59,4.48,2,0c0,0-1.78-7.29-1.78-8.39A4.8,4.8,0,0,0,47.56,47.43Z" transform="translate(-2 -6.32)"/><path d="M52.07,60.45l1.78-7.66c1.07-.67,3.24-5.78,3.66-11.05s-.78-6.92-3.28-5.75S51.89,44.67,51,47.43a4.8,4.8,0,0,0,.89,4.63c0,1.1-1.78,8.39-1.78,8.39C50.48,64.92,52.07,60.45,52.07,60.45Z" transform="translate(-2 -6.32)"/><path d="M49.33,45.42s-.09-8.87,4.78-15.49c5.6-7.61,13.74-13.47,16.75-15.62A1,1,0,0,0,71,12.77l-.9-.85a1,1,0,0,0-1.31-.08c-3.4,2.6-18.18,15.2-19.9,27.06C48.86,38.89,47.84,41.05,49.33,45.42Z" transform="translate(-2 -6.32)"/><path d="M44.84,11c2.46,1.87,7.09,6.3,6.32,16.6l.95-1.24s2.18-9-4.58-18.23a.88.88,0,0,0-1.39,0l-1.4,1.7A.85.85,0,0,0,44.84,11Z" transform="translate(-2 -6.32)"/><path d="M32.77,15.8C35.6,18.89,44.71,29.2,47.3,36.09l.4-1.71s-4.38-8.82-8.13-12.95A42.86,42.86,0,0,1,31.18,7,1,1,0,0,0,30,6.36l-1.79.5a1,1,0,0,0-.58,1.4A45.86,45.86,0,0,0,32.77,15.8Z" transform="translate(-2 -6.32)"/><path d="M65.83,21.43l-.16.16c-.18.17-.36.34-.54.52-1.84,1.83-6.82,7-8.5,11.15A4.35,4.35,0,0,1,59,36.74a23.05,23.05,0,0,1-3.36,16.72l-.94,3.13S56.83,55.31,67.12,47c0,0,7.86-6.08,10.31-7.43s7.29-6.23,5.41-21.95c0,0-10.6-1.84-17,3.81Z" transform="translate(-2 -6.32)"/><path d="M49.29,64.35a9.79,9.79,0,0,1-3.46-1.21,2.3,2.3,0,0,1-.28-.43l0,.3-.24-.14s-14.1.38-18.77,3.46-8.2,2.37-10.38,5.6,4.7,9,11.3,10.22S46.76,69.21,48.33,66.81a1,1,0,0,1,1.93,0c1.57,2.4,14.21,16.61,20.82,15.35s13.48-7,11.3-10.22S76.66,69.42,72,66.34s-18.77-3.46-18.77-3.46L53,63l0-.3a2.3,2.3,0,0,1-.28.43A9.79,9.79,0,0,1,49.29,64.35Z" transform="translate(-2 -6.32)"/><path d="M48.71,69.63l-2.4,2.85.54,20.09s2.21,2.51,3.8,0l1.23-20.8L50,69.61A.84.84,0,0,0,48.71,69.63Z" transform="translate(-2 -6.32)"/><text x="0" y="102.35" fill="#000000" font-size="5px" font-weight="bold" font-family="'Helvetica Neue', Helvetica, Arial-Unicode, Arial, Sans-serif">Created by parkjisun</text><text x="0" y="107.35" fill="#000000" font-size="5px" font-weight="bold" font-family="'Helvetica Neue', Helvetica, Arial-Unicode, Arial, Sans-serif">from the Noun Project</text></svg>